# xmcd CD database file
#
# Track frame offsets:
#	150
#	7329
#	29675
#	52385
#	74465
#	93795
#	119750
#	121845
#	141460
#	146615
#	177582
#	196930
#	215990
#	236055
#	255067
#
# Disc length: 3497 seconds
#
# Revision: 0
# Processed by: cddbd v1.5.1PL0 Copyright (c) Steve Scherf et al.
# Submitted via: CDex 1.60beta1
#
DISCID=f30da70f
DTITLE=Joel A. Martin - Jazzical - A Marriage Of Classical And Jazz
DYEAR=1900
DGENRE=Jazz
TTITLE0=Grand Corale From The Solidier's Tale - Stravinsky
TTITLE1=Nocturne, Op. 72 #1 In E Minor - Chopin
TTITLE2=Intermezzo In A - Brahms
TTITLE3=Girl With The Flaxen Hair - Debussy
TTITLE4=Chopin From Carnaval (Take 2) - Schumann
TTITLE5=Promenade From Carnaval - Schumann
TTITLE6=Petite Corale From The Soldier's Tale - Stavinsky
TTITLE7=Nocturne, Op. 37 #1 In G Minor - Chopin
TTITLE8=Charina From Carnival (Classical) - Schumann
TTITLE9=Charina From Carnival (Jazzical) - Schumann
TTITLE10=Chopin From Carnaval (Take 1) - Schumann
TTITLE11=Reverie - Debussy
TTITLE12=Debussy Meets Monk
TTITLE13=Baroque Gets Dizzy
TTITLE14=Reprise: Grand Corale - Stravinsky
EXTD=
EXTT0=
EXTT1=
EXTT2=
EXTT3=
EXTT4=
EXTT5=
EXTT6=
EXTT7=
EXTT8=
EXTT9=
EXTT10=
EXTT11=
EXTT12=
EXTT13=
EXTT14=
PLAYORDER=
